<svg width="1076" height="202" viewBox="0 0 1076 202" fill="none" xmlns="http://www.w3.org/2000/svg">
<rect y="17.5391" width="166.922" height="166.922" rx="83.4609" fill="#619086"/>
<path d="M109.071 86.5499L85.4638 72.5821C84.8569 72.2241 84.1651 72.0356 83.4605 72.0363C82.7559 72.0369 82.0645 72.2268 81.4583 72.5861L57.8508 86.5538C57.2628 86.9016 56.7754 87.3965 56.4366 87.9898C56.0979 88.5831 55.9195 89.2544 55.9189 89.9376V117.086C55.9189 118.479 56.6547 119.766 57.8508 120.47L81.4583 134.438C82.0634 134.8 82.7556 134.992 83.4611 134.992C84.1665 134.992 84.8587 134.8 85.4638 134.438L109.071 120.47C109.659 120.122 110.147 119.627 110.485 119.034C110.824 118.441 111.003 117.769 111.003 117.086V89.9376C111.003 89.2537 110.825 88.5816 110.486 87.9876C110.148 87.3935 109.66 86.898 109.071 86.5499ZM103.134 114.844L83.4611 126.482L63.7881 114.844V92.1803L83.4611 80.5418L103.134 92.1803V114.844Z" fill="#F2F2F2"/>
<path d="M44.1153 117.463V81.603L68.5097 67.1867L64.5083 60.4113L38.178 75.9726C37.5894 76.3207 37.1016 76.8162 36.7628 77.4102C36.4241 78.0043 36.246 78.6764 36.2461 79.3603V117.463C33.9526 118.274 31.9657 119.773 30.5571 121.757C29.1485 123.74 28.387 126.11 28.377 128.543C28.377 135.05 33.6729 140.346 40.1807 140.346C46.6885 140.346 51.9845 135.05 51.9845 128.543C51.9744 126.11 51.213 123.74 49.8044 121.757C48.3958 119.773 46.4088 118.274 44.1153 117.463ZM40.1807 132.477C39.1676 132.432 38.2111 131.998 37.5102 131.265C36.8094 130.532 36.4182 129.557 36.4182 128.543C36.4182 127.529 36.8094 126.554 37.5102 125.821C38.2111 125.088 39.1676 124.653 40.1807 124.608C41.1938 124.653 42.1503 125.088 42.8512 125.821C43.5521 126.554 43.9432 127.529 43.9432 128.543C43.9432 129.557 43.5521 130.532 42.8512 131.265C42.1503 131.998 41.1938 132.432 40.1807 132.477ZM126.742 116.739C120.234 116.739 114.938 122.035 114.938 128.543C114.938 129.932 115.221 131.246 115.666 132.485L83.4612 151.513L58.2641 136.624L54.2626 143.4L81.4585 159.468C82.0646 159.828 82.7561 160.018 83.4606 160.018C84.1652 160.019 84.8571 159.83 85.4639 159.472L120.718 138.639C122.488 139.697 124.534 140.346 126.742 140.346C133.249 140.346 138.545 135.05 138.545 128.543C138.545 122.035 133.249 116.739 126.742 116.739ZM126.742 132.477C125.729 132.432 124.772 131.998 124.071 131.265C123.37 130.532 122.979 129.557 122.979 128.543C122.979 127.529 123.37 126.554 124.071 125.821C124.772 125.088 125.729 124.653 126.742 124.608C127.755 124.653 128.711 125.088 129.412 125.821C130.113 126.554 130.504 127.529 130.504 128.543C130.504 129.557 130.113 130.532 129.412 131.265C128.711 131.998 127.755 132.432 126.742 132.477ZM83.4612 65.5892C86.3374 65.5892 88.9381 64.5151 90.988 62.8035L122.807 81.6069V108.87H130.676V79.3603C130.676 78.6764 130.498 78.0043 130.16 77.4102C129.821 76.8162 129.333 76.3207 128.744 75.9726L95.0367 56.0557C95.1836 55.3213 95.2597 54.5645 95.2649 53.7855C95.2649 47.2776 89.969 41.9817 83.4612 41.9817C76.9534 41.9817 71.6574 47.2776 71.6574 53.7855C71.6574 60.2933 76.9534 65.5892 83.4612 65.5892ZM83.4612 49.8509C84.2405 49.8501 85.0025 50.0805 85.6508 50.513C86.2991 50.9455 86.8045 51.5605 87.1031 52.2804C87.4017 53.0002 87.48 53.7924 87.3281 54.5568C87.1763 55.3212 86.8011 56.0233 86.2501 56.5743C85.699 57.1254 84.9969 57.5006 84.2325 57.6524C83.4681 57.8043 82.6759 57.7259 81.9561 57.4273C81.2362 57.1288 80.6212 56.6233 80.1887 55.9751C79.7562 55.3268 79.5258 54.5648 79.5266 53.7855C79.5266 51.6136 81.2932 49.8509 83.4612 49.8509Z" fill="#F2F2F2"/>
<path d="M202.994 128.147V121.707H221.416V128.147C221.416 136.534 226.059 143.124 236.843 143.124C247.626 143.124 252.119 136.984 252.119 127.398V49.5173H271.29V128.447C271.29 147.767 257.811 160.947 236.993 160.947C214.527 160.947 202.994 147.018 202.994 128.147ZM325.171 160.947C303.155 160.947 287.729 144.922 287.729 122.007C287.729 98.792 302.856 82.7665 324.572 82.7665C346.739 82.7665 360.817 97.5938 360.817 120.659V126.2L305.102 126.35C306.45 139.38 313.34 145.97 325.471 145.97C335.506 145.97 342.096 142.076 344.192 135.037H361.117C357.971 151.212 344.492 160.947 325.171 160.947ZM324.722 97.7436C313.939 97.7436 307.349 103.585 305.551 114.668H342.695C342.695 104.483 335.655 97.7436 324.722 97.7436ZM384.577 70.1857C378.436 70.1857 373.494 65.2432 373.494 59.1026C373.494 52.962 378.436 48.1693 384.577 48.1693C390.568 48.1693 395.66 52.962 395.66 59.1026C395.66 65.2432 390.568 70.1857 384.577 70.1857ZM357.768 193.747L360.763 177.572C363.309 178.32 364.807 178.47 367.054 178.47C373.344 178.47 375.441 174.876 375.441 167.387V85.013H393.713V169.484C393.713 185.21 384.727 195.394 368.701 195.394C365.256 195.394 362.56 195.095 357.768 193.747ZM434.607 160.947C418.881 160.947 409.296 151.811 409.296 137.882C409.296 124.253 419.181 115.716 436.704 114.368L458.87 112.721V111.073C458.87 101.039 452.879 96.9947 443.594 96.9947C432.81 96.9947 426.819 101.488 426.819 109.276H411.243C411.243 93.2505 424.423 82.7665 444.492 82.7665C464.412 82.7665 476.693 93.55 476.693 114.069V159H460.668L459.32 148.067C456.174 155.705 446.14 160.947 434.607 160.947ZM440.598 147.168C451.831 147.168 459.02 140.428 459.02 129.046V125.152L443.594 126.35C432.211 127.398 427.868 131.143 427.868 137.133C427.868 143.873 432.361 147.168 440.598 147.168ZM513.065 159H494.943V47.5702H513.065V116.016L541.821 85.013H564.736L536.579 114.368L564.137 159H543.169L523.849 127.848L513.065 139.08V159ZM597.1 49.5173V107.029L641.432 49.5173H664.047L627.803 96.2459L664.497 159H642.331L615.222 112.421L597.1 135.636V159H577.929V49.5173H597.1ZM695.976 160.947C680.25 160.947 670.664 151.811 670.664 137.882C670.664 124.253 680.549 115.716 698.072 114.368L720.239 112.721V111.073C720.239 101.039 714.248 96.9947 704.962 96.9947C694.178 96.9947 688.188 101.488 688.188 109.276H672.611C672.611 93.2505 685.791 82.7665 705.861 82.7665C725.78 82.7665 738.061 93.55 738.061 114.069V159H722.036L720.688 148.067C717.543 155.705 707.508 160.947 695.976 160.947ZM701.967 147.168C713.199 147.168 720.388 140.428 720.388 129.046V125.152L704.962 126.35C693.579 127.398 689.236 131.143 689.236 137.133C689.236 143.873 693.729 147.168 701.967 147.168ZM802.441 84.7135V101.638H795.701C782.521 101.638 774.284 108.677 774.284 123.055V159H756.012V85.1628H773.235L774.284 95.9463C777.429 88.6075 784.468 83.6651 794.353 83.6651C796.899 83.6651 799.445 83.9646 802.441 84.7135ZM831.733 159H814.809V47.5702H833.081V95.7966C837.873 87.5591 847.758 82.6167 858.991 82.6167C880.109 82.6167 892.989 99.0915 892.989 122.456C892.989 145.221 879.06 160.947 857.793 160.947C846.71 160.947 837.274 156.005 832.931 147.468L831.733 159ZM833.23 121.707C833.23 135.037 841.468 144.173 854.049 144.173C866.929 144.173 874.567 134.887 874.567 121.707C874.567 108.527 866.929 99.0915 854.049 99.0915C841.468 99.0915 833.23 108.377 833.23 121.707ZM903.195 121.857C903.195 98.792 919.819 82.9162 942.734 82.9162C965.649 82.9162 982.274 98.792 982.274 121.857C982.274 144.922 965.649 160.797 942.734 160.797C919.819 160.797 903.195 144.922 903.195 121.857ZM921.467 121.857C921.467 135.336 930.153 144.472 942.734 144.472C955.315 144.472 964.002 135.336 964.002 121.857C964.002 108.377 955.315 99.2413 942.734 99.2413C930.153 99.2413 921.467 108.377 921.467 121.857ZM1015.03 159H996.757V85.013H1013.68L1015.18 94.5984C1019.82 87.1098 1028.81 82.7665 1038.84 82.7665C1057.41 82.7665 1067 94.2988 1067 113.47V159H1048.73V117.813C1048.73 105.382 1042.59 99.3911 1033.15 99.3911C1021.92 99.3911 1015.03 107.179 1015.03 119.161V159Z" fill="#333333"/>
</svg>
